# xmcd
#
# Track frame offsets:
#  155
#  15790
#  32695
#  48822
#  60852
#  78312
#  95425
#  110835
#
# Disc length: 1652 seconds
#
# Revision: 0
# Processed by: cddbd v1.5.1PL2 Copyright (c) Steve Scherf et al.
# Submitted via: Collectorz.com_Music_Collector 6.11
#
DISCID=4e067208
DTITLE=Jimmy McCracklin - Same Lovin'
DYEAR=1989
DGENRE=Blues
TTITLE0=All Shucks
TTITLE1=Games To Strong
TTITLE2=Outside Help
TTITLE3=Just Gotta Know
TTITLE4=Same Lovin'
TTITLE5=Do It Together
TTITLE6=My Answer
TTITLE7=Think
EXTD=
EXTT0=
EXTT1=
EXTT2=
EXTT3=
EXTT4=
EXTT5=
EXTT6=
EXTT7=
PLAYORDER=
